<svg width="55" height="54" viewBox="0 0 55 54" fill="none" xmlns="http://www.w3.org/2000/svg">
<path d="M27.5656 0V53.9353C12.6717 53.9353 0.597656 41.8613 0.597656 26.9673C0.598303 12.0734 12.6717 0 27.5656 0Z" fill="#3183FF"/>
<path d="M41.0501 0C48.4971 0 54.5338 6.03668 54.5338 13.4837C54.5338 20.9307 48.4971 26.9673 41.0501 26.9673C33.6031 26.9673 27.5664 20.9307 27.5664 13.4837C27.5658 6.03668 33.6031 0 41.0501 0Z" fill="#3183FF"/>
<path d="M41.0501 26.9688C48.4971 26.9688 54.5338 33.0054 54.5338 40.4524C54.5338 47.8994 48.4971 53.9361 41.0501 53.9361C33.6031 53.9361 27.5664 47.8994 27.5664 40.4524C27.5658 33.0061 33.6031 26.9688 41.0501 26.9688Z" fill="#3183FF"/>
</svg>
